# Wavefront Obj file
# 
# verts: 107 uv-s: 262
mtllib Cowcatcher_LP.mtl

g Cowcatcher

v -0.673631 -0.290374 -0.417607
v -0.306089 -0.217291 0.360925
v -0.640738 -0.217168 -0.087173
v -0.358156 -0.217305 0.291336
v -0.486363 -0.213657 -0.230367
v -0.540016 0.053592 -0.231987
v -0.337720 -0.214551 -0.231998
v -0.540031 -0.215736 -0.231628
v -0.633644 -0.212481 -0.230437
v -0.388017 -0.211974 -0.225825
v -0.142313 -0.290374 0.659690
v -0.336844 0.284649 -0.231741
v -0.186848 0.485225 -0.235536
v -0.553551 -0.290374 0.108946
v -0.179734 -0.216787 0.523114
v -0.405205 -0.216240 0.231883
v -0.636630 -0.074486 -0.230926
v -0.672031 0.013318 -0.276470
v -0.497225 -0.217604 0.109523
v -0.476434 0.195881 -0.232879
v -0.578442 -0.201023 -0.219744
v -0.179963 0.423683 -0.231315
v -0.388828 0.236867 -0.232011
v -0.673633 -0.290374 -0.055281
v -0.387402 -0.289045 0.334718
v -0.234223 0.383673 -0.232001
v -0.444628 0.171106 -0.231852
v -0.218717 0.530735 -0.416284
v -0.673058 -0.084100 -0.270611
v -0.274732 -0.288363 0.485909
v -0.283572 -0.214495 -0.229746
v -0.673342 0.027001 -0.300107
v -0.443998 -0.215712 -0.229859
v -0.586123 -0.215736 -0.013963
v -0.551165 -0.216870 0.032888
v -0.487095 0.124951 -0.232082
v -0.626777 0.023530 -0.235722
v -0.374646 0.302392 -0.232919
v -0.285300 0.337488 -0.231945
v -0.673252 0.028185 -0.414852
v -0.458957 -0.214872 0.158721
v -0.179947 -0.216545 -0.229502
v -0.233509 -0.215914 -0.229960
v -0.232802 -0.217396 0.453841
v -0.579733 0.003649 -0.231842
v -0.167144 0.432897 -0.231698
v -0.092877 -0.290374 0.659690
v -0.143191 0.428764 -0.213033
v -0.142808 -0.202591 0.554222
v -0.223488 0.526666 -0.290433
v -0.092877 -0.201723 0.554944
v -0.092877 0.429258 -0.212695
v -0.092877 0.432769 -0.231913
v -0.092877 0.486177 -0.232365
v -0.092877 0.532815 -0.286424
v -0.092877 0.532810 -0.416245
v 0.076854 0.421602 -0.234570
v 0.037735 0.526666 -0.290433
v -0.042946 -0.202591 0.554222
v -0.042563 0.428764 -0.213033
v -0.262607 0.421602 -0.234570
v -0.018609 0.432897 -0.231698
v 0.393980 0.003649 -0.231842
v 0.047048 -0.217396 0.453841
v 0.047756 -0.215914 -0.229960
v -0.005806 -0.216545 -0.229502
v 0.273204 -0.214872 0.158721
v 0.487499 0.028185 -0.414852
v 0.099547 0.337488 -0.231945
v 0.188893 0.302392 -0.232919
v 0.441024 0.023530 -0.235722
v 0.301342 0.124951 -0.232082
v 0.365412 -0.216870 0.032888
v 0.400370 -0.215736 -0.013963
v 0.258245 -0.215712 -0.229859
v 0.487589 0.027001 -0.300107
v 0.097819 -0.214495 -0.229746
v 0.088978 -0.288363 0.485909
v 0.487305 -0.084100 -0.270611
v 0.032964 0.530735 -0.416284
v 0.258875 0.171106 -0.231852
v 0.048470 0.383673 -0.232001
v 0.201649 -0.289045 0.334718
v 0.487880 -0.290374 -0.055281
v 0.203075 0.236867 -0.232011
v -0.005790 0.423683 -0.231315
v 0.392689 -0.201023 -0.219744
v 0.290681 0.195881 -0.232879
v 0.311472 -0.217604 0.109523
v 0.486278 0.013318 -0.276470
v 0.450877 -0.074486 -0.230926
v 0.219452 -0.216240 0.231883
v -0.006019 -0.216787 0.523114
v 0.367797 -0.290374 0.108946
v 0.001095 0.485225 -0.235536
v 0.151091 0.284649 -0.231741
v -0.043440 -0.290374 0.659690
v 0.202264 -0.211974 -0.225825
v 0.447891 -0.212481 -0.230437
v 0.354278 -0.215736 -0.231628
v 0.151967 -0.214551 -0.231998
v 0.354262 0.053592 -0.231987
v 0.300610 -0.213657 -0.230367
v 0.172403 -0.217305 0.291336
v 0.454985 -0.217168 -0.087173
v 0.120335 -0.217291 0.360925
v 0.487877 -0.290374 -0.417607
# 107 positions

vt 0.111573 0.810382
vt 0.238187 0.972197
vt 0.131240 0.835531
vt 0.342908 0.916315
vt 0.010000 0.732476
vt 0.397023 0.817116
vt 0.165571 0.931382
vt 0.065836 0.750285
vt 0.148316 0.857536
vt 0.182555 0.902155
vt 0.429617 0.747163
vt 0.385993 0.840591
vt 0.211929 0.990000
vt 0.102141 0.850265
vt 0.420231 0.770393
vt 0.370490 0.867954
vt 0.059565 0.795628
vt 0.217859 0.945500
vt 0.204350 0.928804
vt 0.359764 0.888345
vt 0.409443 0.793272
vt 0.169307 0.883455
vt 0.085280 0.775767
vt 0.331110 0.936570
vt 0.431773 0.741756
vt 0.010021 0.714323
vt 0.425187 0.732633
vt 0.060367 0.732642
vt 0.060416 0.714295
vt 0.425510 0.714164
vt 0.432701 0.714323
vt 0.547254 0.777600
vt 0.546756 0.727196
vt 0.547254 0.362102
vt 0.546967 0.354927
vt 0.528435 0.727416
vt 0.528813 0.362543
vt 0.519650 0.356008
vt 0.322015 0.458572
vt 0.485093 0.702891
vt 0.376641 0.619866
vt 0.464611 0.378924
vt 0.370009 0.429472
vt 0.330972 0.585246
vt 0.314150 0.571895
vt 0.465471 0.728787
vt 0.390299 0.418561
vt 0.487389 0.367925
vt 0.410448 0.686718
vt 0.269710 0.578239
vt 0.417504 0.402807
vt 0.514253 0.358211
vt 0.357820 0.606790
vt 0.402752 0.640615
vt 0.510746 0.722097
vt 0.328754 0.624045
vt 0.440875 0.391561
vt 0.529100 0.777789
vt 0.342157 0.446585
vt 0.424912 0.657486
vt 0.287266 0.551818
vt 0.450240 0.676920
vt 0.188797 0.342754
vt 0.188797 0.706164
vt 0.010000 0.553501
vt 0.552228 0.983913
vt 0.399565 0.805116
vt 0.762975 0.805116
vt 0.612544 0.257840
vt 0.579848 0.352456
vt 0.665830 0.264621
vt 0.593109 0.254439
vt 0.558970 0.251001
vt 0.648070 0.263209
vt 0.642491 0.446458
vt 0.687547 0.526647
vt 0.551033 0.301067
vt 0.595988 0.407374
vt 0.578903 0.257840
vt 0.693023 0.504520
vt 0.625883 0.426560
vt 0.675137 0.487395
vt 0.608779 0.399909
vt 0.685564 0.267211
vt 0.627819 0.259132
vt 0.595589 0.381032
vt 0.549710 0.337265
vt 0.627871 0.451106
vt 0.658740 0.468147
vt 0.723088 0.271327
vt 0.703549 0.269042
vt 0.567859 0.332323
vt 0.697248 0.508493
vt 0.724296 0.512002
vt 0.721740 0.531449
vt 0.662979 0.499876
vt 0.010000 0.478340
vt 0.012625 0.497775
vt 0.071240 0.465937
vt 0.037026 0.474706
vt 0.166125 0.298250
vt 0.029525 0.235323
vt 0.010000 0.237707
vt 0.075339 0.434192
vt 0.106120 0.417019
vt 0.184264 0.303222
vt 0.138337 0.346929
vt 0.105855 0.225071
vt 0.047386 0.233441
vt 0.125136 0.365802
vt 0.059030 0.453510
vt 0.108057 0.392475
vt 0.041233 0.470715
vt 0.155236 0.223753
vt 0.137928 0.373264
vt 0.183014 0.267030
vt 0.046796 0.492819
vt 0.091486 0.412418
vt 0.085612 0.229182
vt 0.175181 0.216956
vt 0.140964 0.220354
vt 0.067102 0.230739
vt 0.154113 0.318372
vt 0.121529 0.223730
vt 0.565196 0.797246
vt 0.730290 0.651563
vt 0.565196 0.462359
vt 0.192609 0.284516
vt 0.351849 0.432029
vt 0.490872 0.284516
vt 0.860891 0.048551
vt 0.695797 0.237754
vt 0.860891 0.383438
vt 0.925072 0.764180
vt 0.786049 0.616667
vt 0.626810 0.764180
vt 0.232150 0.264737
vt 0.480725 0.247515
vt 0.384469 0.266111
vt 0.228324 0.192609
vt 0.477598 0.238108
vt 0.466569 0.264737
vt 0.330598 0.268639
vt 0.475444 0.196520
vt 0.235844 0.237084
vt 0.199550 0.274984
vt 0.191071 0.250132
vt 0.181960 0.201214
vt 0.269863 0.266657
vt 0.706056 0.866232
vt 0.698767 0.892337
vt 0.692699 0.939676
vt 0.777385 0.872437
vt 0.744211 0.903151
vt 0.988228 0.934273
vt 0.838065 0.868302
vt 0.975118 0.866232
vt 0.987244 0.892449
vt 0.737898 0.947202
vt 0.892386 0.868423
vt 0.990000 0.882920
vt 0.739967 0.875194
vt 0.856087 0.669420
vt 0.723711 0.542609
vt 0.856087 0.403085
vt 0.778986 0.121594
vt 0.639464 0.253971
vt 0.512651 0.121594
vt 0.032319 0.096530
vt 0.270522 0.096530
vt 0.149067 0.212898
vt 0.312603 0.068841
vt 0.434058 0.185209
vt 0.195855 0.185209
vt 0.197555 0.622754
vt 0.298116 0.522427
vt 0.197555 0.421040
vt 0.729149 0.496956
vt 0.829710 0.395571
vt 0.729149 0.295244
vt 0.546783 0.034348
vt 0.547681 0.106826
vt 0.546707 0.076349
vt 0.506006 0.089588
vt 0.425648 0.164389
vt 0.541731 0.085069
vt 0.511717 0.108744
vt 0.456297 0.157155
vt 0.430652 0.034348
vt 0.015004 0.979855
vt 0.040648 0.857048
vt 0.096068 0.905458
vt 0.126083 0.929134
vt 0.010000 0.849814
vt 0.090357 0.924615
vt 0.131058 0.937853
vt 0.132033 0.907377
vt 0.131135 0.979855
vt 0.602954 0.957724
vt 0.854058 0.957536
vt 0.853884 0.977206
vt 0.577509 0.977206
vt 0.237246 0.954098
vt 0.513621 0.954098
vt 0.513795 0.973768
vt 0.262690 0.973580
vt 0.951449 0.519327
vt 0.864068 0.608551
vt 0.864068 0.430860
vt 0.951585 0.594348
vt 0.951585 0.772038
vt 0.864203 0.682813
vt 0.501224 0.346744
vt 0.521125 0.346812
vt 0.521304 0.154485
vt 0.501224 0.129678
vt 0.955507 0.797037
vt 0.930700 0.776956
vt 0.738373 0.777135
vt 0.738442 0.797037
vt 0.338972 0.706399
vt 0.196171 0.706297
vt 0.365072 0.685652
vt 0.196868 0.685652
vt 0.336667 0.677689
vt 0.268314 0.608551
vt 0.197591 0.677689
vt 0.908144 0.837826
vt 0.739940 0.837826
vt 0.908841 0.858471
vt 0.766041 0.858573
vt 0.476667 0.945515
vt 0.405944 0.876377
vt 0.337591 0.945515
vt 0.134886 0.685242
vt 0.134711 0.704969
vt 0.010000 0.685242
vt 0.037494 0.705942
vt 0.609668 0.776546
vt 0.582174 0.797246
vt 0.706885 0.777519
vt 0.707061 0.797246
vt 0.580145 0.210552
vt 0.530308 0.267681
vt 0.530308 0.154115
vt 0.914040 0.354927
vt 0.914040 0.468493
vt 0.864203 0.411365
vt 0.062701 0.656357
vt 0.010000 0.656665
vt 0.012902 0.677536
vt 0.088714 0.677536
vt 0.018116 0.766812
vt 0.018116 0.842622
vt 0.038987 0.845527
vt 0.039295 0.792824
vt 0.010000 0.649130
vt 0.045795 0.613245
vt 0.084391 0.649130
vt 0.417826 0.797246
vt 0.456423 0.761361
vt 0.492218 0.797246
# 262 texture coordinates

vn -0.999997 0.001903 0.001731
vn -0.999942 0.000287 0.010712
vn -0.999961 -0.002268 0.008580
vn 0.001656 0.771494 0.636234
vn -0.269707 0.743161 0.612348
vn -0.483330 0.671397 0.561800
vn -0.005696 0.764626 0.644449
vn -0.011749 0.003101 0.999926
vn -0.014187 0.006847 0.999876
vn -0.021480 0.015625 0.999647
vn -0.640049 0.579945 0.503985
vn -0.643594 0.586476 0.491764
vn -0.640477 0.589708 0.491969
vn -0.610802 0.580974 0.537950
vn -0.664652 0.541471 0.514827
vn -0.669187 0.550563 0.499067
vn -0.999999 0.001194 -0.000767
vn -0.619640 0.588823 0.518974
vn -0.999996 0.002781 -0.000007
vn -0.999991 0.004011 -0.001733
vn -0.684542 0.529610 0.500915
vn -0.687054 0.525467 0.501838
vn -0.675902 0.534154 0.507775
vn -0.006744 0.007602 0.999948
vn -0.040670 0.009708 0.999125
vn -0.036486 0.011342 0.999270
vn 0.999258 0.001827 0.038464
vn 0.999258 0.001827 0.038464
vn 0.999258 0.001827 0.038464
vn -0.028455 0.041689 0.998725
vn -0.022125 0.026698 0.999399
vn -0.008508 0.013796 0.999869
vn -0.050629 0.036459 0.998052
vn -0.022150 0.014240 0.999653
vn -0.027505 0.017040 0.999476
vn -0.020371 0.003613 0.999786
vn -0.020284 0.001830 0.999793
vn -0.008522 0.002831 0.999960
vn -0.000567 0.999999 0.001200
vn -0.000566 0.999999 0.001200
vn -0.014309 0.999895 0.002181
vn -0.652363 0.548041 0.523521
vn -0.621065 0.568742 0.539268
vn -0.115199 0.991110 0.066563
vn -0.152820 0.987069 0.048392
vn -0.152820 0.987068 0.048392
vn -0.022172 0.011871 0.999684
vn -0.013277 0.003395 0.999906
vn 0.998504 0.021786 0.050157
vn 0.998504 0.021786 0.050157
vn 0.998504 0.021786 0.050157
vn -0.003927 0.999981 0.004830
vn -0.006934 0.999963 0.004990
vn -0.003927 0.999981 0.004830
vn -0.029855 0.059738 0.997768
vn 0.000323 0.044293 0.999019
vn -0.001236 0.999988 0.004687
vn -0.041554 -0.000442 0.999136
vn -0.018099 0.999806 0.007746
vn -0.018097 0.999806 0.007746
vn 0.007101 0.999964 0.004585
vn -0.038946 0.999188 0.010359
vn -0.023550 0.001331 0.999722
vn -0.015260 0.022831 0.999623
vn -0.114595 0.035041 0.992794
vn -0.098720 0.040340 0.994297
vn -0.207211 0.978055 0.021736
vn 0.011789 0.999930 0.000318
vn -0.999245 -0.008546 -0.037909
vn -0.999245 -0.008547 -0.037909
vn -0.999245 -0.008546 -0.037908
vn -0.201165 0.056538 0.977924
vn -0.670868 0.532583 0.516034
vn -0.676407 0.531526 0.509856
vn 0.999999 0.001187 -0.001032
vn 0.999999 0.001187 -0.001032
vn 0.999999 0.001187 -0.001032
vn -0.668963 0.533495 0.517564
vn -0.023810 0.999712 0.003143
vn -0.023809 0.999712 0.003143
vn 0.026966 0.999636 -0.001123
vn -0.072768 0.013612 0.997256
vn -0.733620 0.657268 0.172631
vn -0.648462 0.576633 0.496982
vn -0.644854 0.733017 0.216446
vn -0.685722 0.526614 0.502457
vn -0.685795 0.526842 0.502119
vn -0.709698 0.447928 0.543773
vn -0.999292 -0.002323 -0.037548
vn -0.999292 -0.002323 -0.037548
vn -0.999292 -0.002323 -0.037548
vn -0.067119 0.997722 0.006779
vn -0.999268 -0.003280 -0.038107
vn -0.999268 -0.003280 -0.038107
vn -0.999268 -0.003280 -0.038107
vn -0.555128 0.706138 0.439548
vn -0.647957 0.574926 0.499612
vn -0.185283 0.759736 0.623275
vn -0.534267 0.643858 0.547727
vn -1.000000 -0.000024 0.000283
vn -1.000000 -0.000024 0.000283
vn -1.000000 -0.000024 0.000283
vn -0.643225 0.567254 0.514281
vn -0.603075 0.584624 0.542693
vn -0.720098 0.300921 0.625224
vn -0.678354 0.103778 0.727369
vn -0.709023 0.077680 0.700894
vn -0.566289 0.541105 0.621709
vn 0.999115 -0.000000 0.042056
vn 0.999115 -0.000001 0.042056
vn 0.999115 -0.000001 0.042055
vn -0.611531 0.591551 0.525449
vn -0.556618 0.616253 0.557143
vn -0.557723 0.603537 0.569814
vn 0.999237 -0.001774 0.039010
vn 0.999237 -0.001773 0.039010
vn 0.999237 -0.001773 0.039010
vn -0.999486 -0.002322 -0.031968
vn -0.999486 -0.002322 -0.031969
vn -0.999486 -0.002323 -0.031969
vn 0.098719 0.040340 0.994297
vn 0.015259 0.022831 0.999623
vn 0.050629 0.036459 0.998052
vn 0.028456 0.041689 0.998725
vn 0.036522 0.045582 0.998293
vn 0.021480 0.015625 0.999647
vn 0.638348 0.733335 0.233949
vn 0.520271 0.543824 0.658463
vn 0.566289 0.541106 0.621708
vn 0.335469 0.725034 0.601487
vn 0.260250 0.749078 0.609223
vn 0.002672 0.778888 0.627157
vn 0.211786 0.706832 0.674933
vn 0.067038 0.956957 0.282382
vn 0.002629 0.982021 0.188754
vn 0.731946 0.656641 0.181873
vn 0.741649 0.670788 -0.000338
vn 0.655321 0.755344 -0.003103
vn -0.010780 0.023674 0.999662
vn 0.017859 0.066440 0.997631
vn -0.009561 0.021983 0.999713
vn -0.011523 0.764218 0.644855
vn 0.002262 0.971426 0.237330
vn 0.008200 0.999937 0.007642
vn 0.391252 0.705503 0.590921
vn 0.676407 0.531526 0.509856
vn 0.675901 0.534155 0.507775
vn 0.684542 0.529610 0.500915
vn 0.685795 0.526841 0.502119
vn 0.036486 0.011342 0.999270
vn 0.027505 0.017039 0.999476
vn 0.022125 0.026697 0.999399
vn 0.999486 -0.002322 -0.031969
vn 0.999486 -0.002322 -0.031968
vn 0.999486 -0.002323 -0.031969
vn 0.652362 0.548041 0.523521
vn 0.664653 0.541470 0.514827
vn 0.687054 0.525467 0.501838
vn -0.999237 -0.001774 0.039010
vn -0.999237 -0.001773 0.039010
vn -0.999237 -0.001774 0.039010
vn 0.709023 0.077681 0.700894
vn 0.720098 0.300921 0.625224
vn 0.709699 0.447928 0.543772
vn 0.647957 0.574926 0.499612
vn 0.648463 0.576633 0.496981
vn 0.619640 0.588822 0.518974
vn 0.611531 0.591551 0.525450
vn 0.640049 0.579945 0.503985
vn 0.643225 0.567254 0.514281
vn 0.669187 0.550564 0.499067
vn 0.610802 0.580974 0.537950
vn 0.603074 0.584624 0.542693
vn 0.557723 0.603537 0.569814
vn 0.556618 0.616254 0.557143
vn -0.999115 -0.000001 0.042056
vn -0.999115 -0.000001 0.042056
vn -0.999115 -0.000001 0.042056
vn 0.685721 0.526615 0.502458
vn 0.678354 0.103778 0.727369
vn 0.022173 0.011871 0.999684
vn 1.000000 -0.000024 0.000283
vn 1.000000 -0.000024 0.000283
vn 1.000000 -0.000024 0.000283
vn 0.485274 0.671339 0.560191
vn 0.643595 0.586476 0.491764
vn 0.571858 0.627222 0.528745
vn 0.555127 0.706138 0.439548
vn 0.999268 -0.003280 -0.038107
vn 0.999268 -0.003280 -0.038107
vn 0.999268 -0.003280 -0.038107
vn 0.023809 0.999712 0.003143
vn 0.023810 0.999711 0.003143
vn 0.067119 0.997722 0.006779
vn 0.999292 -0.002323 -0.037548
vn 0.999292 -0.002323 -0.037548
vn 0.999292 -0.002323 -0.037548
vn 0.999942 0.000287 0.010711
vn 0.999990 0.004011 -0.001734
vn 0.999997 0.001902 0.001731
vn 0.072768 0.013612 0.997256
vn 0.040669 0.009708 0.999125
vn -0.026966 0.999636 -0.001123
vn 0.668964 0.533494 0.517563
vn 0.670868 0.532583 0.516034
vn -0.999999 0.001187 -0.001032
vn -0.999999 0.001187 -0.001032
vn -0.999999 0.001187 -0.001032
vn 0.201165 0.056539 0.977924
vn 0.114595 0.035041 0.992794
vn 0.999245 -0.008546 -0.037909
vn 0.999245 -0.008546 -0.037909
vn 0.999245 -0.008547 -0.037909
vn 0.000566 0.999999 0.001200
vn 0.000566 0.999999 0.001200
vn -0.011788 0.999930 0.000318
vn 0.207211 0.978055 0.021736
vn 0.152820 0.987068 0.048392
vn 0.152820 0.987068 0.048392
vn 0.014187 0.006847 0.999876
vn 0.008508 0.013796 0.999869
vn 0.013276 0.003395 0.999906
vn 0.023549 0.001331 0.999722
vn 0.018098 0.999806 0.007746
vn 0.038946 0.999188 0.010359
vn 0.018098 0.999806 0.007746
vn -0.007101 0.999964 0.004586
vn 0.020285 0.001830 0.999793
vn 0.041553 -0.000442 0.999136
vn 0.020371 0.003614 0.999786
vn 0.003927 0.999981 0.004830
vn 0.003927 0.999981 0.004830
vn 0.001235 0.999988 0.004687
vn 0.006934 0.999963 0.004990
vn -0.998504 0.021786 0.050157
vn -0.998504 0.021787 0.050156
vn -0.998504 0.021786 0.050156
vn 0.022150 0.014240 0.999653
vn 0.115199 0.991110 0.066563
vn 0.006745 0.007602 0.999948
vn 0.621065 0.568743 0.539268
vn 0.014309 0.999895 0.002182
vn 0.008522 0.002831 0.999960
vn 0.011748 0.003101 0.999926
vn -0.999258 0.001827 0.038464
vn -0.999258 0.001827 0.038464
vn -0.999258 0.001827 0.038464
vn 0.999996 0.002781 -0.000007
vn 0.999999 0.001194 -0.000768
vn 0.999961 -0.002267 0.008579
vn -0.083505 0.944945 0.316395
vn -0.652460 0.757806 0.005078
vn -0.219653 0.692233 0.687434
vn -0.742422 0.669902 0.006331
vn -0.520271 0.543824 0.658462
# 255 normals

usemtl Cowcatcher
s 1
f 1/190/1 18/193/2 32/196/3
f 1/190/1 32/196/3 40/198/17
f 1/190/1 24/194/19 29/195/20
f 1/190/1 29/195/20 18/193/2
s 2
f 51/29/4 49/28/5 11/5/6 47/26/7
f 44/23/11 30/17/12 15/8/13
f 16/9/14 41/22/15 25/14/16
f 2/1/18 30/17/12 44/23/11
f 2/1/18 25/14/16 30/17/12
f 49/28/5 15/8/13 11/5/6
f 48/27/98 22/11/99 15/8/13 49/28/5
f 14/7/21 25/14/16 41/22/15
f 15/8/13 30/17/12 11/5/6
f 2/1/18 4/3/103 25/14/16
f 16/9/14 25/14/16 4/3/103
f 51/33/4 59/36/130 60/37/131 52/34/132
f 52/34/132 60/37/131 62/38/134 53/35/135
f 60/37/131 86/52/145 62/38/134
f 104/60/170 83/49/171 92/54/172
f 83/49/171 104/60/170 106/62/167
f 97/58/185 78/46/186 93/55/187
f 67/41/157 83/49/171 94/56/148
f 59/36/130 93/55/187 86/52/145 60/37/131
f 97/58/185 93/55/187 59/36/130
f 78/46/186 83/49/171 106/62/167
f 64/40/169 78/46/186 106/62/167
f 83/49/171 67/41/157 92/54/172
f 46/25/251 22/11/99 48/27/98
f 93/55/187 78/46/186 64/40/169
f 47/32/7 97/58/185 59/36/130 51/33/4
f 53/31/135 46/25/251 48/27/98 52/30/132
f 52/30/132 48/27/98 49/28/5 51/29/4
s 3
f 43/91/8 22/80/9 26/82/10
f 27/83/24 33/85/25 23/81/26
f 61/96/30 38/88/31 39/89/32
f 37/87/33 36/86/34 20/78/35
f 20/78/35 27/83/24 23/81/26
f 38/88/31 12/75/36 39/89/32
f 12/75/36 31/84/37 39/89/32
f 38/88/31 23/81/26 12/75/36
f 22/80/9 43/91/8 42/90/38
f 20/78/35 36/86/34 27/83/24
f 36/86/34 6/70/47 5/69/48
f 37/87/33 6/70/47 36/86/34
f 13/76/55 22/80/9 46/93/56
f 12/75/36 7/71/58 31/84/37
f 6/70/47 8/72/63 5/69/48
f 61/96/30 39/89/32 26/82/10
f 22/80/9 13/76/55 26/82/10
f 17/77/64 9/73/65 45/92/66
f 9/73/65 21/79/72 45/92/66
f 33/85/25 10/74/82 23/81/26
f 37/87/33 45/92/66 6/70/47
f 38/88/31 20/78/35 23/81/26
f 54/95/141 13/76/55 46/93/56 53/94/139
f 26/82/10 13/76/55 61/96/30
f 37/87/33 17/77/64 45/92/66
s 4
f 14/7/21 19/10/22 35/19/23
f 19/10/22 14/7/21 41/22/15
f 36/20/42 41/22/15 27/16/43
f 6/4/73 34/18/74 35/19/23
f 34/18/74 6/4/73 45/24/78
f 3/2/86 24/13/87 34/18/74
f 29/195/88 24/194/87 3/191/86
f 17/192/105 37/197/106 18/193/107
f 17/192/105 29/195/88 3/191/86
f 29/195/88 17/192/105 18/193/107
f 19/10/22 41/22/15 36/20/42
f 34/18/74 24/13/87 14/7/21
f 14/7/21 35/19/23 34/18/74
s 5
f 41/177/27 33/176/28 27/175/29
s 6
f 15/203/39 43/205/40 44/206/41
f 42/204/68 43/205/40 15/203/39
s 7
f 34/252/44 21/251/45 3/249/46
f 3/249/46 21/251/45 9/250/67
s 8
f 3/260/49 9/261/50 17/262/51
s 9
f 7/219/52 4/218/53 2/217/54
f 31/220/57 7/219/52 2/217/54
s 10
f 19/237/59 8/236/60 35/238/61
f 19/237/59 5/235/62 8/236/60
s 11
f 45/245/69 21/243/70 34/244/71
s 12
f 26/125/75 44/127/76 43/126/77
s 13
f 16/229/79 33/230/80 41/231/81
f 10/228/92 33/230/80 16/229/79
s 14
f 32/141/83 20/139/84 50/145/85
f 32/141/83 18/138/96 37/142/97
f 38/143/108 50/145/85 20/139/84
f 20/139/84 32/141/83 37/142/97
f 56/148/144 28/140/252 50/145/85 55/147/143
f 55/147/143 50/145/85 13/137/253 54/146/142
f 28/140/252 40/144/254 32/141/83 50/145/85
f 61/149/255 13/137/253 50/145/85
f 38/143/108 61/149/255 50/145/85
s 15
f 10/172/89 16/173/90 23/174/91
s 16
f 2/128/93 39/130/94 31/129/95
s 17
f 42/65/100 15/63/101 22/64/102
s 18
f 16/9/14 4/3/103 12/6/104
f 23/12/114 16/9/14 12/6/104
s 19
f 35/234/109 8/233/110 6/232/111
s 20
f 26/15/112 39/21/113 2/1/18
f 44/23/11 26/15/112 2/1/18
s 21
f 12/168/115 4/166/116 7/167/117
s 22
f 19/208/118 36/209/119 5/207/120
s 23
f 63/101/121 91/116/122 71/106/123
f 57/99/124 95/117/125 82/111/126
f 53/97/139 62/100/140 95/117/125 54/98/141
f 85/112/150 88/115/151 70/105/152
f 102/123/181 63/101/121 71/106/123
f 85/112/150 98/119/201 75/108/202
f 63/101/121 87/114/209 99/120/210
f 63/101/121 99/120/210 91/116/122
f 82/111/126 95/117/125 86/113/220
f 82/111/126 69/104/221 57/99/124
f 103/124/222 100/121/223 102/123/181
f 77/109/228 101/122/229 96/118/230
f 62/100/140 86/113/220 95/117/125
f 72/107/238 102/123/181 71/106/123
f 103/124/222 102/123/181 72/107/238
f 81/110/240 72/107/238 88/115/151
f 66/103/243 65/102/244 86/113/220
f 96/118/230 85/112/150 70/105/152
f 69/104/221 77/109/228 96/118/230
f 69/104/221 96/118/230 70/105/152
f 85/112/150 81/110/240 88/115/151
f 88/115/151 72/107/238 71/106/123
f 69/104/221 70/105/152 57/99/124
f 85/112/150 75/108/202 81/110/240
f 82/111/126 86/113/220 65/102/244
s 24
f 58/154/127 57/153/128 70/156/129
f 58/154/127 95/162/133 57/153/128
f 58/154/127 76/158/136 68/155/137 80/159/138
f 54/150/142 95/162/133 58/154/127 55/151/143
f 71/157/165 76/158/136 88/160/166
f 88/160/166 58/154/127 70/156/129
f 71/157/165 90/161/188 76/158/136
f 58/154/127 88/160/166 76/158/136
s 25
f 55/151/143 58/154/127 80/159/138 56/152/144
s 26
f 74/45/146 73/44/147 94/56/148
f 94/56/148 84/50/149 74/45/146
f 72/43/156 67/41/157 89/53/158
f 90/186/162 91/187/163 79/184/164
f 105/188/179 79/184/164 91/187/163
f 90/186/162 71/182/180 91/187/163
f 105/188/179 84/185/149 79/184/164
f 74/45/146 84/50/149 105/61/179
f 63/39/204 102/59/205 74/45/146
f 73/44/147 74/45/146 102/59/205
f 81/47/241 67/41/157 72/43/156
f 67/41/157 94/56/148 89/53/158
f 73/44/147 89/53/158 94/56/148
s 27
f 103/212/153 72/210/154 89/211/155
s 28
f 101/164/159 104/165/160 96/163/161
s 29
f 106/62/167 82/48/168 64/40/169
f 106/62/167 69/42/175 82/48/168
s 30
f 96/57/173 92/54/172 85/51/174
f 96/57/173 104/60/170 92/54/172
s 31
f 102/227/176 100/226/177 73/225/178
s 32
f 86/67/182 93/68/183 66/66/184
s 33
f 77/135/189 69/134/190 106/136/191
s 34
f 92/223/192 75/222/193 98/224/194
f 67/221/203 75/222/193 92/223/192
s 35
f 85/169/195 92/170/196 98/171/197
s 36
f 90/186/198 79/184/199 107/189/200
f 79/184/199 84/185/248 107/189/200
f 68/181/249 76/183/250 107/189/200
f 76/183/250 90/186/198 107/189/200
s 37
f 65/132/206 64/131/207 82/133/208
s 38
f 74/247/211 87/248/212 63/246/213
s 39
f 93/202/214 65/200/215 66/201/216
f 64/199/242 65/200/215 93/202/214
s 40
f 99/255/217 87/254/218 105/256/219
f 105/256/219 87/254/218 74/253/239
s 41
f 100/241/224 103/242/225 89/240/226
f 73/239/227 100/241/224 89/240/226
s 42
f 106/216/231 101/214/232 77/213/233
f 106/216/231 104/215/234 101/214/232
s 43
f 91/257/235 99/258/236 105/259/237
s 44
f 81/180/245 75/179/246 67/178/247

# 178 faces
